<svg xmlns="http://www.w3.org/2000/svg" viewBox="0 0 128 128">
  <rect width="128" height="128" rx="28" fill="#0052CC"/>
  <g stroke="#FFFFFF" stroke-width="3" stroke-linecap="round" opacity="0.9">
    <line x1="38" y1="44" x2="64" y2="34"/>
    <line x1="38" y1="44" x2="52" y2="64"/>
    <line x1="38" y1="44" x2="34" y2="72"/>
    <line x1="64" y1="34" x2="90" y2="44"/>
    <line x1="64" y1="34" x2="64" y2="58"/>
    <line x1="90" y1="44" x2="94" y2="72"/>
    <line x1="90" y1="44" x2="76" y2="64"/>
    <line x1="52" y1="64" x2="64" y2="58"/>
    <line x1="76" y1="64" x2="64" y2="58"/>
    <line x1="52" y1="64" x2="46" y2="92"/>
    <line x1="76" y1="64" x2="82" y2="92"/>
    <line x1="34" y1="72" x2="46" y2="92"/>
    <line x1="94" y1="72" x2="82" y2="92"/>
    <line x1="46" y1="92" x2="64" y2="100"/>
    <line x1="82" y1="92" x2="64" y2="100"/>
  </g>
  <g fill="#FFFFFF">
    <circle cx="38" cy="44" r="7"/>
    <circle cx="64" cy="34" r="7"/>
    <circle cx="90" cy="44" r="7"/>
    <circle cx="64" cy="58" r="7"/>
    <circle cx="52" cy="64" r="6"/>
    <circle cx="76" cy="64" r="6"/>
    <circle cx="34" cy="72" r="5"/>
    <circle cx="94" cy="72" r="5"/>
    <circle cx="46" cy="92" r="6"/>
    <circle cx="82" cy="92" r="6"/>
    <circle cx="64" cy="100" r="7"/>
  </g>
</svg>
